P1
# CREATOR: GIMP PNM Filter Version 1.1
4 4
1100110000110011